<svg width="149" height="51" viewBox="0 0 149 51" fill="none" xmlns="http://www.w3.org/2000/svg">
<g clip-path="url(#clip0_101_122)">
<path d="M9.90262 8.67016H0V33.7741H9.90262C13.3327 33.7741 16.2252 32.5491 18.4998 30.1283C20.7706 27.7111 21.9262 24.7162 21.9262 21.2203C21.9262 17.7244 20.7743 14.7002 18.4998 12.294C16.2252 9.88787 13.3327 8.6665 9.90262 8.6665V8.67016ZM15.4719 27.1699C14.0421 28.7241 12.1698 29.5139 9.90262 29.5139H4.4357V12.9303H9.90262C12.1698 12.9303 14.0421 13.7129 15.4719 15.2561C16.9054 16.8029 17.6294 18.8105 17.6294 21.224C17.6294 23.6374 16.9017 25.6158 15.4683 27.1736L15.4719 27.1699Z" fill="#F2F2F2"/>
<path d="M33.0794 15.2783C30.3076 15.2783 28.0038 16.1962 26.2339 18.0026C24.464 19.8091 23.5645 22.08 23.5645 24.7567C23.5645 27.4335 24.475 29.7666 26.2705 31.5511C28.066 33.3356 30.4502 34.2388 33.361 34.2388C36.8277 34.2388 39.4825 32.9151 41.2524 30.3041L41.3658 30.1396L37.8991 28.1137L37.8004 28.2563C36.8277 29.6569 35.3467 30.3663 33.3976 30.3663C31.9824 30.3663 30.772 30.0152 29.7956 29.3241C28.8851 28.6768 28.2744 27.7517 27.9782 26.5705H41.9691L41.9911 26.4096C42.0861 25.7441 42.1337 25.1992 42.1337 24.7933C42.1337 22.1677 41.278 19.9005 39.5922 18.0611C37.9028 16.2145 35.7123 15.2783 33.0758 15.2783H33.0794ZM29.6274 20.2369C30.5307 19.491 31.6789 19.1143 33.0429 19.1143C34.2423 19.1143 35.3028 19.469 36.195 20.1711C37.0361 20.833 37.5993 21.813 37.8662 23.0892H27.9343C28.2049 21.9008 28.7754 20.9427 29.6238 20.2406" fill="#F2F2F2"/>
<path d="M47.7066 9.90276C46.3207 11.1936 45.6149 13.0988 45.6149 15.5671V15.7354H42.9308V19.7834H45.6149V33.7744H49.8056V19.7834H53.9744V15.7354H49.8056V15.5671C49.8056 14.3823 50.1091 13.501 50.7125 12.9525C51.3634 12.3601 52.391 12.1261 53.7733 12.2541L53.978 12.2724V8.21697L53.8025 8.206C51.1477 8.03779 49.0962 8.60825 47.7103 9.8991" fill="#F2F2F2"/>
<path d="M58.209 8.21338C57.4776 8.21338 56.8486 8.47667 56.344 8.99228C55.8394 9.50789 55.5834 10.1295 55.5834 10.8353C55.5834 11.5411 55.8467 12.1664 56.3623 12.682C56.8779 13.1976 57.4995 13.4609 58.209 13.4609C58.9184 13.4609 59.5364 13.1976 60.0556 12.682C60.5712 12.1664 60.8345 11.5447 60.8345 10.8353C60.8345 10.1259 60.5786 9.50789 60.0739 8.99228C59.5693 8.47301 58.9403 8.21338 58.209 8.21338Z" fill="#F2F2F2"/>
<path d="M60.3079 15.7354H56.1172V33.7744H60.3079V15.7354Z" fill="#F2F2F2"/>
<path d="M73.1214 15.2783C70.803 15.2783 69.0258 16.0572 67.8336 17.5967V15.7391H63.6429V33.7781H67.8336V24.1241C67.8336 22.4639 68.2322 21.217 69.0148 20.4234C69.7973 19.6299 70.8468 19.224 72.134 19.224C73.3006 19.224 74.233 19.5604 74.8986 20.2296C75.5641 20.8952 75.9042 21.8752 75.9042 23.1368V33.7817H80.0949V22.7492C80.0949 20.449 79.4476 18.6097 78.1714 17.2859C76.8915 15.9585 75.1948 15.2856 73.125 15.2856" fill="#F2F2F2"/>
<path d="M98.3972 18.0572C96.7078 16.2106 94.5173 15.2744 91.8808 15.2744C89.1089 15.2744 86.8051 16.1923 85.0352 17.9987C83.2654 19.8052 82.3658 22.0761 82.3658 24.7528C82.3658 27.4296 83.2763 29.7627 85.0718 31.5472C86.8673 33.3317 89.2515 34.2349 92.1624 34.2349C95.629 34.2349 98.2838 32.9112 100.054 30.3002L100.167 30.1357L96.7004 28.1098L96.6017 28.2524C95.629 29.653 94.148 30.3624 92.1989 30.3624C90.7837 30.3624 89.5733 30.0113 88.597 29.3202C87.6864 28.6729 87.0757 27.7478 86.7795 26.5666H100.77L100.792 26.4057C100.887 25.7402 100.935 25.1953 100.935 24.7894C100.935 22.1638 100.079 19.8966 98.3935 18.0572H98.3972ZM88.4288 20.2367C89.332 19.4907 90.4802 19.1141 91.8442 19.1141C93.0436 19.1141 94.1041 19.4688 94.9964 20.1709C95.8374 20.8328 96.4006 21.8128 96.6675 23.089H86.7357C87.0063 21.9005 87.5767 20.9425 88.4251 20.2403" fill="#F2F2F2"/>
<path d="M140.611 0L132.219 8.39236L123.83 16.7811L132.219 25.1734L140.611 16.7811L149 8.39236L140.611 0Z" fill="#F2F2F2"/>
<path d="M115.438 25.1733L107.049 33.562L98.6569 41.9544L107.049 50.3431L115.438 41.9544L123.83 33.562L115.438 25.1733Z" fill="#F2F2F2"/>
<path d="M140.611 33.562L132.219 25.1733L123.83 33.562L132.219 41.9544L140.611 50.3431L149 41.9544L140.611 33.562Z" fill="#F2F2F2"/>
<path d="M115.438 8.39236L107.049 0L98.6569 8.39236L107.049 16.7811L115.438 25.1734L123.83 16.7811L115.438 8.39236Z" fill="#F2F2F2"/>
</g>
<defs>
<clipPath id="clip0_101_122">
<rect width="149" height="50.3432" fill="white"/>
</clipPath>
</defs>
</svg>
